<svg id="Layer_1" xmlns="http://www.w3.org/2000/svg" viewBox="0 0 40 40"><style>.st0{fill:#a7a7a7}</style><path class="st0" d="M20 0C9 0 0 9 0 20s9 20 20 20 20-9 20-20S31 0 20 0zm-5.1 29h-4V16.9h4V29zm-.3-14.4c-.5.4-1 .6-1.6.6-.7 0-1.2-.2-1.6-.6-.4-.4-.6-.9-.6-1.5s.2-1.1.6-1.5c.4-.4 1-.6 1.6-.6.6 0 1.2.2 1.6.6.4.4.6.9.6 1.5s-.2 1.1-.6 1.5zM29.2 29h-4v-6.5c0-.9-.2-1.5-.5-2s-.8-.7-1.5-.7c-.5 0-.9.1-1.3.4-.4.3-.6.6-.8 1.1-.1.2-.1.5-.1 1V29h-4V16.9h4v1.8c.3-.4.4-.7.5-.7.1-.2.4-.4.7-.6.3-.2.6-.4 1-.6.4-.1.8-.2 1.4-.2 1.4 0 2.5.5 3.3 1.4.8.9 1.2 2.3 1.2 4.1V29z"/></svg>