<svg id="Layer_1" xmlns="http://www.w3.org/2000/svg" viewBox="0 0 40 40"><style>.st0{fill:#a7a7a7}</style><circle class="st0" cx="20" cy="20" r="3.2"/><path class="st0" d="M24 12h-8c-2.2 0-4 1.8-4 4v8c0 2.2 1.8 3.9 3.9 3.9H24c2.2 0 3.9-1.8 3.9-3.9v-8c.1-2.2-1.7-4-3.9-4zm-4 13.2c-2.9 0-5.2-2.3-5.2-5.2 0-2.9 2.3-5.2 5.2-5.2s5.2 2.3 5.2 5.2-2.3 5.2-5.2 5.2zm5.2-9.1c-.7 0-1.2-.6-1.2-1.2 0-.7.6-1.2 1.2-1.2.7 0 1.2.6 1.2 1.2 0 .7-.5 1.2-1.2 1.2z"/><path class="st0" d="M20 0C9 0 0 9 0 20s9 20 20 20 20-9 20-20S31 0 20 0zm10 24c0 3.3-2.7 6-6 6h-8c-3.3 0-6-2.7-6-6v-8c0-3.3 2.7-6 6-6h8c3.3 0 6 2.7 6 6v8z"/></svg>