<svg id="Layer_1" xmlns="http://www.w3.org/2000/svg" viewBox="0 0 40 40"><style>.st0{fill:#a7a7a7}</style><path class="st0" d="M20 0C9 0 0 9 0 20s9 20 20 20 20-9 20-20S31 0 20 0zm7.6 16.2v.4c0 2.5-.9 4.8-2.6 6.8-1.8 2-4.1 3.1-7.1 3.1-1.9 0-3.7-.5-5.2-1.5h.8c1.6 0 3-.5 4.3-1.5-.8 0-1.4-.2-2-.7-.6-.5-1-1-1.2-1.7.3.1.5.1.6.1.3 0 .6 0 .9-.1-.8-.2-1.4-.6-2-1.2-.5-.6-.8-1.4-.8-2.2v-.1c.4.3.9.4 1.5.5-1-.7-1.5-1.7-1.5-2.9 0-.6.2-1.2.5-1.7 1.8 2.3 4.2 3.5 7.1 3.6-.1-.3-.1-.6-.1-.8 0-1 .3-1.8 1-2.5s1.5-1 2.4-1c1 0 1.8.4 2.5 1.1.8-.1 1.5-.4 2.2-.8-.3.8-.7 1.4-1.5 1.9.6 0 1.2-.2 1.9-.5-.5.6-1 1.2-1.7 1.7z"/></svg>